<mxfile host="app.diagrams.net" agent="Mozilla/5.0 (Windows NT 10.0; Win64; x64; rv:130.0) Gecko/20100101 Firefox/130.0" version="24.7.8">
  <diagram id="C5RBs43oDa-KdzZeNtuy" name="Page-1">
    <mxGraphModel dx="1509" dy="785" grid="1" gridSize="10" guides="1" tooltips="1" connect="1" arrows="1" fold="1" page="1" pageScale="1" pageWidth="827" pageHeight="1169" math="0" shadow="0">
      <root>
        <mxCell id="WIyWlLk6GJQsqaUBKTNV-0" />
        <mxCell id="WIyWlLk6GJQsqaUBKTNV-1" parent="WIyWlLk6GJQsqaUBKTNV-0" />
        <mxCell id="MwEDPDnM8EqonvKNk_vc-19" value="" style="edgeStyle=orthogonalEdgeStyle;rounded=0;orthogonalLoop=1;jettySize=auto;html=1;strokeColor=#008000;" edge="1" parent="WIyWlLk6GJQsqaUBKTNV-1" source="MwEDPDnM8EqonvKNk_vc-1" target="MwEDPDnM8EqonvKNk_vc-15">
          <mxGeometry relative="1" as="geometry" />
        </mxCell>
        <mxCell id="MwEDPDnM8EqonvKNk_vc-21" value="Parameter Requirements" style="edgeLabel;html=1;align=center;verticalAlign=middle;resizable=0;points=[];" vertex="1" connectable="0" parent="MwEDPDnM8EqonvKNk_vc-19">
          <mxGeometry x="-0.0743" relative="1" as="geometry">
            <mxPoint as="offset" />
          </mxGeometry>
        </mxCell>
        <mxCell id="MwEDPDnM8EqonvKNk_vc-1" value="User" style="strokeWidth=2;html=1;shape=mxgraph.flowchart.terminator;whiteSpace=wrap;fillColor=#d5e8d4;strokeColor=#82b366;fontStyle=1" vertex="1" parent="WIyWlLk6GJQsqaUBKTNV-1">
          <mxGeometry x="91" y="30" width="100" height="60" as="geometry" />
        </mxCell>
        <mxCell id="MwEDPDnM8EqonvKNk_vc-17" style="edgeStyle=orthogonalEdgeStyle;rounded=0;orthogonalLoop=1;jettySize=auto;html=1;entryX=0.566;entryY=1.053;entryDx=0;entryDy=0;exitX=0.75;exitY=0;exitDx=0;exitDy=0;entryPerimeter=0;strokeColor=#800000;" edge="1" parent="WIyWlLk6GJQsqaUBKTNV-1" source="MwEDPDnM8EqonvKNk_vc-2" target="MwEDPDnM8EqonvKNk_vc-15">
          <mxGeometry relative="1" as="geometry">
            <mxPoint x="165.96000000000004" y="269.46000000000004" as="sourcePoint" />
            <mxPoint x="166" y="200" as="targetPoint" />
          </mxGeometry>
        </mxCell>
        <mxCell id="MwEDPDnM8EqonvKNk_vc-22" value="&lt;div&gt;Generated Pipe&lt;/div&gt;&lt;div&gt;Fitting Parts&lt;br&gt;&lt;/div&gt;" style="edgeLabel;html=1;align=center;verticalAlign=middle;resizable=0;points=[];" vertex="1" connectable="0" parent="MwEDPDnM8EqonvKNk_vc-17">
          <mxGeometry x="0.0457" relative="1" as="geometry">
            <mxPoint x="15" y="-6" as="offset" />
          </mxGeometry>
        </mxCell>
        <mxCell id="MwEDPDnM8EqonvKNk_vc-45" style="edgeStyle=orthogonalEdgeStyle;rounded=0;orthogonalLoop=1;jettySize=auto;html=1;exitX=0.25;exitY=1;exitDx=0;exitDy=0;entryX=0.25;entryY=0;entryDx=0;entryDy=0;strokeColor=#0000ff;" edge="1" parent="WIyWlLk6GJQsqaUBKTNV-1" source="MwEDPDnM8EqonvKNk_vc-2" target="MwEDPDnM8EqonvKNk_vc-3">
          <mxGeometry relative="1" as="geometry" />
        </mxCell>
        <mxCell id="MwEDPDnM8EqonvKNk_vc-46" value="&lt;div&gt;Adapter Model &lt;/div&gt;&lt;div&gt;Parameter Inputs&lt;/div&gt;" style="edgeLabel;html=1;align=center;verticalAlign=middle;resizable=0;points=[];" vertex="1" connectable="0" parent="MwEDPDnM8EqonvKNk_vc-45">
          <mxGeometry x="0.0049" relative="1" as="geometry">
            <mxPoint x="-8" as="offset" />
          </mxGeometry>
        </mxCell>
        <mxCell id="MwEDPDnM8EqonvKNk_vc-2" value="pipeFitting.scad" style="rounded=1;whiteSpace=wrap;html=1;absoluteArcSize=1;arcSize=14;strokeWidth=2;fillColor=#dae8fc;strokeColor=#6c8ebf;fontStyle=1" vertex="1" parent="WIyWlLk6GJQsqaUBKTNV-1">
          <mxGeometry x="51" y="272" width="140" height="60" as="geometry" />
        </mxCell>
        <mxCell id="MwEDPDnM8EqonvKNk_vc-9" style="edgeStyle=orthogonalEdgeStyle;rounded=0;orthogonalLoop=1;jettySize=auto;html=1;exitX=1;exitY=0.5;exitDx=0;exitDy=0;entryX=1;entryY=0.75;entryDx=0;entryDy=0;strokeColor=#800000;" edge="1" parent="WIyWlLk6GJQsqaUBKTNV-1" source="MwEDPDnM8EqonvKNk_vc-3" target="MwEDPDnM8EqonvKNk_vc-2">
          <mxGeometry relative="1" as="geometry">
            <mxPoint x="118" y="329" as="targetPoint" />
            <Array as="points">
              <mxPoint x="191" y="421" />
              <mxPoint x="308" y="421" />
              <mxPoint x="308" y="317" />
            </Array>
          </mxGeometry>
        </mxCell>
        <mxCell id="MwEDPDnM8EqonvKNk_vc-25" value="&lt;div&gt;Internally Threaded&lt;/div&gt;&lt;div&gt;Part for End Cap&lt;br&gt;&lt;/div&gt;" style="edgeLabel;html=1;align=center;verticalAlign=middle;resizable=0;points=[];" vertex="1" connectable="0" parent="MwEDPDnM8EqonvKNk_vc-9">
          <mxGeometry x="-0.0864" y="-1" relative="1" as="geometry">
            <mxPoint x="-64" y="34" as="offset" />
          </mxGeometry>
        </mxCell>
        <mxCell id="MwEDPDnM8EqonvKNk_vc-42" style="edgeStyle=orthogonalEdgeStyle;rounded=0;orthogonalLoop=1;jettySize=auto;html=1;exitX=0.25;exitY=1;exitDx=0;exitDy=0;entryX=0.25;entryY=0;entryDx=0;entryDy=0;strokeColor=#0000ff;" edge="1" parent="WIyWlLk6GJQsqaUBKTNV-1" source="MwEDPDnM8EqonvKNk_vc-3" target="MwEDPDnM8EqonvKNk_vc-4">
          <mxGeometry relative="1" as="geometry" />
        </mxCell>
        <mxCell id="MwEDPDnM8EqonvKNk_vc-47" value="&lt;div&gt;Adapter Model &lt;br&gt;&lt;/div&gt;&lt;div&gt;Parameter Inputs&lt;/div&gt;" style="edgeLabel;html=1;align=center;verticalAlign=middle;resizable=0;points=[];" vertex="1" connectable="0" parent="MwEDPDnM8EqonvKNk_vc-42">
          <mxGeometry x="-0.1677" y="-2" relative="1" as="geometry">
            <mxPoint x="-6" as="offset" />
          </mxGeometry>
        </mxCell>
        <mxCell id="MwEDPDnM8EqonvKNk_vc-3" value="internalToPipe.scad" style="rounded=1;whiteSpace=wrap;html=1;absoluteArcSize=1;arcSize=14;strokeWidth=2;fillColor=#dae8fc;strokeColor=#6c8ebf;fontStyle=1" vertex="1" parent="WIyWlLk6GJQsqaUBKTNV-1">
          <mxGeometry x="51" y="390" width="140" height="60" as="geometry" />
        </mxCell>
        <mxCell id="MwEDPDnM8EqonvKNk_vc-10" value="&lt;div&gt;Externally Threaded&lt;/div&gt;&lt;div&gt;Part for Main Body&lt;br&gt;&lt;/div&gt;" style="edgeStyle=orthogonalEdgeStyle;rounded=0;orthogonalLoop=1;jettySize=auto;html=1;exitX=1;exitY=0.5;exitDx=0;exitDy=0;entryX=1;entryY=0.25;entryDx=0;entryDy=0;strokeColor=#800000;" edge="1" parent="WIyWlLk6GJQsqaUBKTNV-1" source="MwEDPDnM8EqonvKNk_vc-4" target="MwEDPDnM8EqonvKNk_vc-2">
          <mxGeometry x="-0.7544" relative="1" as="geometry">
            <mxPoint x="168" y="330" as="targetPoint" />
            <Array as="points">
              <mxPoint x="191" y="527" />
              <mxPoint x="328" y="527" />
              <mxPoint x="328" y="287" />
            </Array>
            <mxPoint as="offset" />
          </mxGeometry>
        </mxCell>
        <mxCell id="MwEDPDnM8EqonvKNk_vc-40" value="" style="edgeStyle=orthogonalEdgeStyle;rounded=0;orthogonalLoop=1;jettySize=auto;html=1;exitX=0.75;exitY=0;exitDx=0;exitDy=0;entryX=0.75;entryY=1;entryDx=0;entryDy=0;strokeColor=#800000;" edge="1" parent="WIyWlLk6GJQsqaUBKTNV-1" source="MwEDPDnM8EqonvKNk_vc-4" target="MwEDPDnM8EqonvKNk_vc-3">
          <mxGeometry relative="1" as="geometry">
            <mxPoint x="159.9999999999999" y="469" as="sourcePoint" />
            <mxPoint x="159.9999999999999" y="450" as="targetPoint" />
          </mxGeometry>
        </mxCell>
        <mxCell id="MwEDPDnM8EqonvKNk_vc-49" value="&lt;div&gt;Resulting Adapter&amp;nbsp;&lt;/div&gt;&lt;div&gt;Threading&lt;/div&gt;" style="edgeLabel;html=1;align=center;verticalAlign=middle;resizable=0;points=[];" vertex="1" connectable="0" parent="MwEDPDnM8EqonvKNk_vc-40">
          <mxGeometry x="-0.1004" y="-2" relative="1" as="geometry">
            <mxPoint x="20" as="offset" />
          </mxGeometry>
        </mxCell>
        <mxCell id="MwEDPDnM8EqonvKNk_vc-4" value="externalToPipe.scad" style="rounded=1;whiteSpace=wrap;html=1;absoluteArcSize=1;arcSize=14;strokeWidth=2;fillColor=#dae8fc;strokeColor=#6c8ebf;fontStyle=1" vertex="1" parent="WIyWlLk6GJQsqaUBKTNV-1">
          <mxGeometry x="51" y="504" width="140" height="60" as="geometry" />
        </mxCell>
        <mxCell id="MwEDPDnM8EqonvKNk_vc-15" value="pfDesigner.scad" style="shape=parallelogram;html=1;strokeWidth=2;perimeter=parallelogramPerimeter;whiteSpace=wrap;rounded=1;arcSize=12;size=0.23;fillColor=#dae8fc;strokeColor=#6c8ebf;fontStyle=1" vertex="1" parent="WIyWlLk6GJQsqaUBKTNV-1">
          <mxGeometry x="30" y="140" width="222" height="60" as="geometry" />
        </mxCell>
        <mxCell id="MwEDPDnM8EqonvKNk_vc-18" style="edgeStyle=orthogonalEdgeStyle;rounded=0;orthogonalLoop=1;jettySize=auto;html=1;exitX=0.25;exitY=1;exitDx=0;exitDy=0;entryX=0.25;entryY=0;entryDx=0;entryDy=0;strokeColor=#0000ff;" edge="1" parent="WIyWlLk6GJQsqaUBKTNV-1" source="MwEDPDnM8EqonvKNk_vc-15" target="MwEDPDnM8EqonvKNk_vc-2">
          <mxGeometry relative="1" as="geometry">
            <mxPoint x="69.92999999999995" y="200.29999999999995" as="sourcePoint" />
            <mxPoint x="70" y="270" as="targetPoint" />
          </mxGeometry>
        </mxCell>
        <mxCell id="MwEDPDnM8EqonvKNk_vc-20" value="&lt;div&gt;Model Parameter&lt;/div&gt;&lt;div&gt;Inputs&lt;/div&gt;" style="edgeLabel;html=1;align=center;verticalAlign=middle;resizable=0;points=[];" vertex="1" connectable="0" parent="MwEDPDnM8EqonvKNk_vc-18">
          <mxGeometry x="-0.2059" relative="1" as="geometry">
            <mxPoint x="-7" y="1" as="offset" />
          </mxGeometry>
        </mxCell>
        <mxCell id="MwEDPDnM8EqonvKNk_vc-23" value="&lt;div&gt;Gasket Part&lt;/div&gt;&lt;div&gt;(stl, 3mf)&lt;br&gt;&lt;/div&gt;" style="strokeWidth=2;html=1;shape=mxgraph.flowchart.direct_data;whiteSpace=wrap;fillColor=#e1d5e7;strokeColor=#9673a6;fontStyle=1" vertex="1" parent="WIyWlLk6GJQsqaUBKTNV-1">
          <mxGeometry x="303" y="140" width="122" height="60" as="geometry" />
        </mxCell>
        <mxCell id="MwEDPDnM8EqonvKNk_vc-26" value="&lt;div&gt;Cap Nut Part&lt;br&gt;&lt;/div&gt;&lt;div&gt;(stl, 3mf)&lt;br&gt;&lt;/div&gt;" style="strokeWidth=2;html=1;shape=mxgraph.flowchart.direct_data;whiteSpace=wrap;fillColor=#e1d5e7;strokeColor=#9673a6;fontStyle=1" vertex="1" parent="WIyWlLk6GJQsqaUBKTNV-1">
          <mxGeometry x="303" y="212" width="122" height="60" as="geometry" />
        </mxCell>
        <mxCell id="MwEDPDnM8EqonvKNk_vc-27" value="&lt;div&gt;Fitting Part&lt;br&gt;&lt;/div&gt;&lt;div&gt;(stl, 3mf)&lt;br&gt;&lt;/div&gt;" style="strokeWidth=2;html=1;shape=mxgraph.flowchart.direct_data;whiteSpace=wrap;fillColor=#e1d5e7;strokeColor=#9673a6;fontStyle=1" vertex="1" parent="WIyWlLk6GJQsqaUBKTNV-1">
          <mxGeometry x="303" y="70" width="122" height="60" as="geometry" />
        </mxCell>
        <mxCell id="MwEDPDnM8EqonvKNk_vc-29" style="edgeStyle=orthogonalEdgeStyle;rounded=0;orthogonalLoop=1;jettySize=auto;html=1;entryX=0;entryY=0.5;entryDx=0;entryDy=0;entryPerimeter=0;strokeColor=#8000ff;" edge="1" parent="WIyWlLk6GJQsqaUBKTNV-1" source="MwEDPDnM8EqonvKNk_vc-15" target="MwEDPDnM8EqonvKNk_vc-27">
          <mxGeometry relative="1" as="geometry">
            <Array as="points">
              <mxPoint x="270" y="170" />
              <mxPoint x="270" y="100" />
            </Array>
          </mxGeometry>
        </mxCell>
        <mxCell id="MwEDPDnM8EqonvKNk_vc-30" style="edgeStyle=orthogonalEdgeStyle;rounded=0;orthogonalLoop=1;jettySize=auto;html=1;entryX=0;entryY=0.5;entryDx=0;entryDy=0;entryPerimeter=0;strokeColor=#8000ff;" edge="1" parent="WIyWlLk6GJQsqaUBKTNV-1" source="MwEDPDnM8EqonvKNk_vc-15" target="MwEDPDnM8EqonvKNk_vc-26">
          <mxGeometry relative="1" as="geometry">
            <Array as="points">
              <mxPoint x="270" y="170" />
              <mxPoint x="270" y="242" />
            </Array>
          </mxGeometry>
        </mxCell>
        <mxCell id="MwEDPDnM8EqonvKNk_vc-50" style="edgeStyle=orthogonalEdgeStyle;rounded=0;orthogonalLoop=1;jettySize=auto;html=1;exitX=0.75;exitY=0;exitDx=0;exitDy=0;entryX=0.75;entryY=1;entryDx=0;entryDy=0;strokeColor=#800000;" edge="1" parent="WIyWlLk6GJQsqaUBKTNV-1" source="MwEDPDnM8EqonvKNk_vc-38" target="MwEDPDnM8EqonvKNk_vc-4">
          <mxGeometry relative="1" as="geometry" />
        </mxCell>
        <mxCell id="MwEDPDnM8EqonvKNk_vc-51" value="&lt;div&gt;Resulting Adapter&amp;nbsp;&lt;/div&gt;&lt;div&gt;Threading&lt;/div&gt;" style="edgeLabel;html=1;align=center;verticalAlign=middle;resizable=0;points=[];" vertex="1" connectable="0" parent="MwEDPDnM8EqonvKNk_vc-50">
          <mxGeometry x="0.0954" relative="1" as="geometry">
            <mxPoint x="22" y="2" as="offset" />
          </mxGeometry>
        </mxCell>
        <mxCell id="MwEDPDnM8EqonvKNk_vc-38" value="adapterGenerator.scad" style="rounded=1;whiteSpace=wrap;html=1;absoluteArcSize=1;arcSize=14;strokeWidth=2;fillColor=#dae8fc;strokeColor=#6c8ebf;fontStyle=1" vertex="1" parent="WIyWlLk6GJQsqaUBKTNV-1">
          <mxGeometry x="51" y="624" width="140" height="60" as="geometry" />
        </mxCell>
        <mxCell id="MwEDPDnM8EqonvKNk_vc-44" style="edgeStyle=orthogonalEdgeStyle;rounded=0;orthogonalLoop=1;jettySize=auto;html=1;exitX=0.25;exitY=1;exitDx=0;exitDy=0;entryX=0.25;entryY=0;entryDx=0;entryDy=0;strokeColor=#0000ff;" edge="1" parent="WIyWlLk6GJQsqaUBKTNV-1" source="MwEDPDnM8EqonvKNk_vc-4" target="MwEDPDnM8EqonvKNk_vc-38">
          <mxGeometry relative="1" as="geometry">
            <Array as="points" />
          </mxGeometry>
        </mxCell>
        <mxCell id="MwEDPDnM8EqonvKNk_vc-48" value="&lt;div&gt;Threading Model&lt;br&gt;&lt;/div&gt;&lt;div&gt;Parameter Inputs&lt;/div&gt;" style="edgeLabel;html=1;align=center;verticalAlign=middle;resizable=0;points=[];" vertex="1" connectable="0" parent="MwEDPDnM8EqonvKNk_vc-44">
          <mxGeometry x="-0.2571" y="-1" relative="1" as="geometry">
            <mxPoint x="-7" y="7" as="offset" />
          </mxGeometry>
        </mxCell>
        <mxCell id="MwEDPDnM8EqonvKNk_vc-28" value="&lt;div&gt;Part&amp;nbsp;&lt;/div&gt;&lt;div&gt;Mesh&lt;/div&gt;" style="edgeStyle=orthogonalEdgeStyle;rounded=0;orthogonalLoop=1;jettySize=auto;html=1;entryX=0;entryY=0.5;entryDx=0;entryDy=0;entryPerimeter=0;strokeColor=#8000ff;" edge="1" parent="WIyWlLk6GJQsqaUBKTNV-1" source="MwEDPDnM8EqonvKNk_vc-15" target="MwEDPDnM8EqonvKNk_vc-23">
          <mxGeometry x="0.1376" relative="1" as="geometry">
            <mxPoint as="offset" />
          </mxGeometry>
        </mxCell>
      </root>
    </mxGraphModel>
  </diagram>
</mxfile>
